<svg xmlns="http://www.w3.org/2000/svg" xmlns:xlink="http://www.w3.org/1999/xlink" width="32.556" height="32.667" viewBox="0 0 32.556 32.667">
  <defs>
    <clipPath id="clip-path">
      <rect id="Rectangle_447" data-name="Rectangle 447" width="32.556" height="32.667" transform="translate(790.166 53.391)" fill="none"/>
    </clipPath>
    <clipPath id="clip-path-2">
      <rect id="Rectangle_444" data-name="Rectangle 444" width="22.001" height="22.002" transform="translate(800.721 58.233)" fill="none"/>
    </clipPath>
    <clipPath id="clip-path-3">
      <rect id="Rectangle_443" data-name="Rectangle 443" width="22" height="22" transform="translate(800.721 58.235)" fill="none"/>
    </clipPath>
    <clipPath id="clip-path-4">
      <rect id="Rectangle_446" data-name="Rectangle 446" width="22" height="32.667" transform="translate(790.166 53.391)" fill="none"/>
    </clipPath>
  </defs>
  <g id="Group_951" data-name="Group 951" transform="translate(-790.166 -53.391)" clip-path="url(#clip-path)">
    <g id="Group_945" data-name="Group 945" opacity="0.87">
      <g id="Group_944" data-name="Group 944">
        <g id="Group_943" data-name="Group 943" clip-path="url(#clip-path-2)">
          <g id="Group_942" data-name="Group 942">
            <g id="Group_941" data-name="Group 941" clip-path="url(#clip-path-3)">
              <path id="Path_160" data-name="Path 160" d="M817.466,80.235H804.575c-2.129,0-3.854-2.979-3.854-6.658V64.891c0-3.677,1.725-6.658,3.854-6.658h12.891c1.383,0,2.655,1.282,3.346,3.351.872,2.611,1.91,6.055,1.91,7.649s-1.038,5.038-1.91,7.65c-.691,2.068-1.963,3.35-3.346,3.35" fill="#85e9fe"/>
            </g>
          </g>
        </g>
      </g>
    </g>
    <g id="Group_950" data-name="Group 950" opacity="0.68">
      <g id="Group_949" data-name="Group 949">
        <g id="Group_948" data-name="Group 948" clip-path="url(#clip-path-4)">
          <g id="Group_947" data-name="Group 947">
            <g id="Group_946" data-name="Group 946" clip-path="url(#clip-path-4)">
              <path id="Path_161" data-name="Path 161" d="M790.166,80.609V58.839a5.448,5.448,0,0,1,5.448-5.448h11.1a5.449,5.449,0,0,1,5.452,5.447h0v21.77a5.448,5.448,0,0,1-5.449,5.449h-11.1a5.449,5.449,0,0,1-5.448-5.449" fill="#3431bc"/>
            </g>
          </g>
        </g>
      </g>
    </g>
  </g>
</svg>
