<svg xmlns="http://www.w3.org/2000/svg" width="509" height="411" viewBox="0 0 509 411">
  <defs>
    <clipPath id="a">
      <path data-name="Rectangle 406" transform="translate(-.19)" fill="none" d="M0 0h509v411H0z"/>
    </clipPath>
  </defs>
  <g data-name="Group 867">
    <g data-name="Group 865">
      <g data-name="Group 864" clip-path="url(#a)" transform="translate(.19)">
        <path data-name="Path 151" d="M269.487 185.716V-.131h-85.19v128.734c-11.188-3.59-21.742-5.552-30.8-5.552-98.981 0-153.973 57.192-153.973 140.78 0 109.984 74.789 140.78 153.978 140.78 44.28 0 78.15-1.522 103.843-4.4l12.142-2.2v.66l.009-212.951Zm-87.389 150.7h-48.393s-46.149-2.2-46.171-72.59c0 0-3.607-70.39 66.378-70.39l28.187 2.2Z" fill="#fff"/>
        <path data-name="Path 152" d="M496.652 211.039v-70.387s-30.795-17.6-79.188-17.6c-26.396 0-105.585 13.2-105.585 87.987 0 65.99 79.189 79.189 79.189 79.189s39.594 8.8 39.594 30.8-39.594 17.6-39.594 17.6-57.192-8.8-74.789-22v72.158s34.1 20.228 87.987 20.228 105.585-30.8 105.585-92.387c0-70.39-74.789-79.189-74.789-79.189s-41.794-11-41.794-28.6 13.2-17.6 26.4-17.6 35.195 0 76.989 19.8" fill="#6772e5"/>
      </g>
    </g>
  </g>
</svg>
