<svg xmlns="http://www.w3.org/2000/svg" xmlns:xlink="http://www.w3.org/1999/xlink" width="46.001" height="32" viewBox="0 0 46.001 32">
  <defs>
    <clipPath id="clip-path">
      <rect id="Rectangle_429" data-name="Rectangle 429" width="46.001" height="32" transform="translate(318.753 50.75)" fill="none"/>
    </clipPath>
    <clipPath id="clip-path-2">
      <rect id="Rectangle_426" data-name="Rectangle 426" width="32.667" height="22" transform="translate(318.753 60.749)" fill="none"/>
    </clipPath>
    <clipPath id="clip-path-4">
      <rect id="Rectangle_428" data-name="Rectangle 428" width="32.667" height="22" transform="translate(332.086 50.749)" fill="none"/>
    </clipPath>
  </defs>
  <g id="Group_906" data-name="Group 906" transform="translate(-318.753 -50.75)" clip-path="url(#clip-path)">
    <g id="Group_900" data-name="Group 900" opacity="0.87">
      <g id="Group_899" data-name="Group 899">
        <g id="Group_898" data-name="Group 898" clip-path="url(#clip-path-2)">
          <g id="Group_897" data-name="Group 897">
            <g id="Group_896" data-name="Group 896" clip-path="url(#clip-path-2)">
              <path id="Path_155" data-name="Path 155" d="M346.474,82.749H323.7a4.946,4.946,0,0,1-4.947-4.945h0V65.695a4.947,4.947,0,0,1,4.946-4.946h22.775a4.946,4.946,0,0,1,4.946,4.946V77.8a4.946,4.946,0,0,1-4.946,4.946" fill="#85e9fe"/>
            </g>
          </g>
        </g>
      </g>
    </g>
    <g id="Group_905" data-name="Group 905" opacity="0.68">
      <g id="Group_904" data-name="Group 904">
        <g id="Group_903" data-name="Group 903" clip-path="url(#clip-path-4)">
          <g id="Group_902" data-name="Group 902">
            <g id="Group_901" data-name="Group 901" clip-path="url(#clip-path-4)">
              <path id="Path_156" data-name="Path 156" d="M359.3,72.749h-21.77a5.449,5.449,0,0,1-5.449-5.449V56.2a5.449,5.449,0,0,1,5.449-5.449H359.3a5.448,5.448,0,0,1,5.448,5.448h0V67.3a5.448,5.448,0,0,1-5.445,5.451h0" fill="#3431bc"/>
            </g>
          </g>
        </g>
      </g>
    </g>
  </g>
</svg>
