<svg xmlns="http://www.w3.org/2000/svg" xmlns:xlink="http://www.w3.org/1999/xlink" width="33" height="33" viewBox="0 0 33 33">
  <defs>
    <clipPath id="clip-path">
      <rect id="Rectangle_421" data-name="Rectangle 421" width="33" height="33" transform="translate(98.098 52.883)" fill="none"/>
    </clipPath>
    <clipPath id="clip-path-2">
      <rect id="Rectangle_418" data-name="Rectangle 418" width="22" height="22" transform="translate(98.099 63.883)" fill="none"/>
    </clipPath>
    <clipPath id="clip-path-4">
      <rect id="Rectangle_420" data-name="Rectangle 420" width="22" height="22" transform="translate(109.099 52.883)" fill="none"/>
    </clipPath>
  </defs>
  <g id="Group_887" data-name="Group 887" transform="translate(-98.098 -52.883)">
    <g id="Group_886" data-name="Group 886" clip-path="url(#clip-path)">
      <g id="Group_880" data-name="Group 880" opacity="0.87">
        <g id="Group_879" data-name="Group 879">
          <g id="Group_878" data-name="Group 878" clip-path="url(#clip-path-2)">
            <g id="Group_877" data-name="Group 877">
              <g id="Group_876" data-name="Group 876" clip-path="url(#clip-path-2)">
                <path id="Path_153" data-name="Path 153" d="M115.06,85.883H103.138A5.039,5.039,0,0,1,98.1,80.844V68.922a5.039,5.039,0,0,1,5.039-5.039H115.06a5.039,5.039,0,0,1,5.039,5.039V80.844a5.039,5.039,0,0,1-5.039,5.039" fill="#85e9fe"/>
              </g>
            </g>
          </g>
        </g>
      </g>
      <g id="Group_885" data-name="Group 885" opacity="0.68">
        <g id="Group_884" data-name="Group 884">
          <g id="Group_883" data-name="Group 883" clip-path="url(#clip-path-4)">
            <g id="Group_882" data-name="Group 882">
              <g id="Group_881" data-name="Group 881" clip-path="url(#clip-path-4)">
                <path id="Path_154" data-name="Path 154" d="M125.845,74.883H114.353a5.254,5.254,0,0,1-5.254-5.254V58.137a5.254,5.254,0,0,1,5.254-5.254h11.492a5.256,5.256,0,0,1,5.254,5.254V69.629a5.256,5.256,0,0,1-5.254,5.254" fill="#3431bc"/>
              </g>
            </g>
          </g>
        </g>
      </g>
    </g>
  </g>
</svg>
