<?xml version="1.0" encoding="UTF-8"?> <svg xmlns="http://www.w3.org/2000/svg" width="4000px" height="2000px" viewBox="0 0 4000 2000"><path d="M1412.8,1328.08a48.74,48.74,0,0,1,5.6-21.6l312.89-586.32H1447.54a20.43,20.43,0,0,1-16.86-8.48,35.48,35.48,0,0,1-.49-40.4,20.27,20.27,0,0,1,17.36-8.48h341c16,0,23.52,6.57,23.52,19.76a50.36,50.36,0,0,1-7.52,24.4l-312,585.45H1800a20.15,20.15,0,0,1,17.39,8,33,33,0,0,1,6.16,19.76,35.19,35.19,0,0,1-6.16,20.24,19.86,19.86,0,0,1-17.36,8.89H1435.38q-22.56,0-22.57-21.6" style="fill:#88b800"></path><path d="M1950.17,1325.28v-639a20.17,20.17,0,0,1,8.48-17.36,32.75,32.75,0,0,1,19.68-6.16H2312.8q23.34,0,23.44,27.28a36.4,36.4,0,0,1-6.08,21.12,19.77,19.77,0,0,1-17.36,9H2012.17v258.4H2160a20.51,20.51,0,0,1,17.36,8,31.94,31.94,0,0,1,6.08,20.17c0,17-8,25.36-23.43,25.36H2012.17v260.32H2312.8a20.38,20.38,0,0,1,16.88,8,32.47,32.47,0,0,1,6.32,20.87q0,28.14-23.44,28.16H1978.32a30.79,30.79,0,0,1-19.68-6.55,21.26,21.26,0,0,1-8.48-17.85" style="fill:#88b800"></path><path d="M2461.2,1325.28v-632q0-30,31-30.08c18.16,0,34.72,14.48,49.76,43.28l161.6,312,161.6-312c15-28.8,32-43.28,49.76-43.28,20.64,0,31,10.08,31,30.08v632a21,21,0,0,1-8.88,17.84,40,40,0,0,1-43.68,0,20.79,20.79,0,0,1-9.44-17.84v-528l-155.92,295q-10.32,19.8-25.36,19.76c-10,0-17.52-6.56-24.4-19.76l-155-297.85v530.89a20.74,20.74,0,0,1-9.36,17.84,36.76,36.76,0,0,1-21.6,6.56,36,36,0,0,1-22.08-6.56,20.91,20.91,0,0,1-9-17.84" style="fill:#88b800"></path><path d="M3065.28,691.44a33.8,33.8,0,0,1,6.09-19.84,19.94,19.94,0,0,1,17.36-8.8h376.71a20.4,20.4,0,0,1,17.44,8,32.86,32.86,0,0,1,6.08,19.44,35.92,35.92,0,0,1-6.08,20.8,20,20,0,0,1-17.44,8.8H3308.56v605a20.67,20.67,0,0,1-9.36,17.92,36.69,36.69,0,0,1-21.6,6.56,36,36,0,0,1-22.08-6.56,21,21,0,0,1-9-17.92V720.16H3088.73a20.68,20.68,0,0,1-16.88-8,31.73,31.73,0,0,1-6.57-20.4" style="fill:#88b800"></path><path d="M3605.44,1154.23V685.36q0-22.56,31-22.56t31,22.56v468.87q0,71.36,35.2,107.6t100.1,36.14q64.8,0,100.1-36.14t35.15-107.6V685.36q0-22.56,31-22.56t31,22.56v468.87q0,104-54,152.72t-143.26,48.4q-89.28,0-143.28-48.4t-54-152.72" style="fill:#88b800"></path><path d="M172.18,513.28a172,172,0,0,0,0,344H386.67L444,799.91h-272a114.63,114.63,0,0,1-6.11-229.17c2,0,4.05,0,6,0H673.2l6.88-7a171.57,171.57,0,0,1,121.56-50.43Z" style="fill:#88b800"></path><path d="M916.26,685.2h0a113.88,113.88,0,0,1-.56,11.68h0a113.9,113.9,0,0,1-33,69.2L792,857.28,253.15,1395.91A114.63,114.63,0,0,1,89.68,1235.17l1.32-1.32L467.67,857.28,525,799.91,720.54,604.22a114.15,114.15,0,0,1,81.12-33.69h0A114.69,114.69,0,0,1,916.22,685.17Zm-114.56,515a114.64,114.64,0,0,1,0,229.2h-501l229.2-229.2Zm171.9-515h0A172,172,0,0,0,680,563.68l-629.6,629.6a171.84,171.84,0,0,0,121.52,293.44H801.7a172,172,0,0,0,0-344H587.06l336-336a171.45,171.45,0,0,0,50.48-121.68"></path><path d="M830.5,1314.88a28.72,28.72,0,1,1-28.73-28.71h.09a28.7,28.7,0,0,1,28.64,28.71"></path><path d="M830.5,685.2a28.72,28.72,0,1,1-28.8-28.64h.16A28.71,28.71,0,0,1,830.5,685.2"></path><path d="M200.91,1314.88a28.73,28.73,0,1,1-28.73-28.71h0a28.72,28.72,0,0,1,28.73,28.71"></path><rect width="4000" height="2000" style="fill:none"></rect></svg>
